HIERARCHY
ROOT Hips
{
	OFFSET 0.000000 0.000000 0.000000
	CHANNELS 6 Xposition Yposition Zposition Xrotation Yrotation Zrotation
	JOINT LeftUpLeg_virtual
	{
		OFFSET 0.000000 0.000000 0.000000
		CHANNELS 3 Xrotation Yrotation Zrotation
		JOINT LeftUpLeg
		{
			OFFSET 15.427100 -6.655098 0.678600
			CHANNELS 3 Xrotation Yrotation Zrotation
			JOINT LeftLeg
			{
				OFFSET 4.081073 -39.591068 13.024000
				CHANNELS 3 Xrotation Yrotation Zrotation
				JOINT LeftFoot
				{
					OFFSET -4.081074 -37.707932 -15.979700
					CHANNELS 3 Xrotation Yrotation Zrotation
					JOINT LeftToeBase
					{
						OFFSET 5.346399 -15.068900 20.645000
						CHANNELS 3 Xrotation Yrotation Zrotation
						JOINT LeftToe_End
						{
							OFFSET 2.754700 0.931300 11.300900
							CHANNELS 3 Xrotation Yrotation Zrotation
							End Site
							{
								OFFSET 0 0 0
							}
						}
					}
				}
			}
		}
	}
	JOINT RightUpLeg_virtual
	{
		OFFSET 0.000000 0.000000 0.000000
		CHANNELS 3 Xrotation Yrotation Zrotation
		JOINT RightUpLeg
		{
			OFFSET -15.569500 -6.655098 0.678600
			CHANNELS 3 Xrotation Yrotation Zrotation
			JOINT RightLeg
			{
				OFFSET -4.081825 -39.591045 13.023800
				CHANNELS 3 Xrotation Yrotation Zrotation
				JOINT RightFoot
				{
					OFFSET 4.081824 -37.707954 -15.979600
					CHANNELS 3 Xrotation Yrotation Zrotation
					JOINT RightToeBase
					{
						OFFSET -5.346400 -15.068900 20.645000
						CHANNELS 3 Xrotation Yrotation Zrotation
						JOINT RightToe_End
						{
							OFFSET -2.754700 0.931300 11.300900
							CHANNELS 3 Xrotation Yrotation Zrotation
							End Site
							{
								OFFSET 0 0 0
							}
						}
					}
				}
			}
		}
	}
	JOINT Spine_virtual
	{
		OFFSET 0.000000 0.000000 0.000000
		CHANNELS 3 Xrotation Yrotation Zrotation
		JOINT Spine
		{
			OFFSET -0.279200 12.230698 -2.892100
			CHANNELS 3 Xrotation Yrotation Zrotation
			JOINT Spine1
			{
				OFFSET -0.232667 10.192268 -1.242267
				CHANNELS 3 Xrotation Yrotation Zrotation
				JOINT Spine1_split
				{
					OFFSET -0.232667 10.192268 -1.242267
					CHANNELS 3 Xrotation Yrotation Zrotation
					JOINT Spine2
					{
						OFFSET -0.232667 10.192268 -1.242267
						CHANNELS 3 Xrotation Yrotation Zrotation
						JOINT Neck_virtual
						{
							OFFSET 0.000000 0.000000 0.000000
							CHANNELS 3 Xrotation Yrotation Zrotation
							JOINT Neck
							{
								OFFSET -0.418800 17.814194 8.416900
								CHANNELS 3 Xrotation Yrotation Zrotation
								JOINT Head
								{
									OFFSET 0.000000 7.031097 3.806800
									CHANNELS 3 Xrotation Yrotation Zrotation
									JOINT HeadTop_End
									{
										OFFSET 0.000000 24.646606 12.978600
										CHANNELS 3 Xrotation Yrotation Zrotation
										End Site
										{
											OFFSET 0 0 0
										}
									}
								}
							}
						}
						JOINT LeftShoulder_virtual
						{
							OFFSET 0.000000 0.000000 0.000000
							CHANNELS 3 Xrotation Yrotation Zrotation
							JOINT LeftShoulder
							{
								OFFSET 8.476499 7.247704 -3.868750
								CHANNELS 3 Xrotation Yrotation Zrotation
								JOINT LeftShoulder_split
								{
									OFFSET 8.476499 7.247704 -3.868750
									CHANNELS 3 Xrotation Yrotation Zrotation
									JOINT LeftArm
									{
										OFFSET 9.308998 -2.777710 0.208600
										CHANNELS 3 Xrotation Yrotation Zrotation
										JOINT LeftForeArm
										{
											OFFSET 29.972298 0.000000 0.000000
											CHANNELS 3 Xrotation Yrotation Zrotation
											JOINT LeftHand
											{
												OFFSET 26.026505 0.000000 0.000000
												CHANNELS 3 Xrotation Yrotation Zrotation
												End Site
												{
													OFFSET 0 0 0
												}
											}
										}
									}
								}
							}
						}
						JOINT RightShoulder_virtual
						{
							OFFSET 0.000000 0.000000 0.000000
							CHANNELS 3 Xrotation Yrotation Zrotation
							JOINT RightShoulder
							{
								OFFSET -7.570500 7.247704 -3.868750
								CHANNELS 3 Xrotation Yrotation Zrotation
								JOINT RightShoulder_split
								{
									OFFSET -7.570500 7.247704 -3.868750
									CHANNELS 3 Xrotation Yrotation Zrotation
									JOINT RightArm
									{
										OFFSET -9.308998 -2.777710 0.208500
										CHANNELS 3 Xrotation Yrotation Zrotation
										JOINT RightForeArm
										{
											OFFSET -29.972300 0.000000 0.000000
											CHANNELS 3 Xrotation Yrotation Zrotation
											JOINT RightHand
											{
												OFFSET -26.026505 0.000000 0.000000
												CHANNELS 3 Xrotation Yrotation Zrotation
												End Site
												{
													OFFSET 0 0 0
												}
											}
										}
									}
								}
							}
						}
					}
				}
			}
		}
	}
}
MOTION
Frames: 9
Frame Time: 0.03333333
-7.859454 70.273468 -7.232395 0.000000 0.000000 0.000000 8.049032 7.996321 -21.857987 -70.990814 17.555707 13.444094 91.554192 -1.219791 8.262391 26.197447 -0.272038 21.938732 -0.980822 -4.523747 -4.623721 0.000000 0.000000 0.000000 2.975465 6.876359 -20.485459 -13.789582 -6.653141 -10.221727 46.328815 12.032799 6.979281 6.796692 17.526242 -6.127156 -46.594823 2.704287 -1.590960 0.000000 0.000000 0.000000 3.373955 11.745194 -20.644016 5.290991 6.262474 3.125131 2.573882 2.105734 1.867080 1.020569 2.323578 0.961073 0.000000 0.000000 0.000000 1.312393 1.072834 2.876588 -7.368108 3.578878 -3.122187 -16.914386 7.227745 4.243835 0.000000 0.000000 0.000000 2.393618 1.606316 1.748488 -1.069007 -5.701080 -4.133804 -1.975987 2.355833 -2.919235 59.870891 -16.050130 -42.597424 9.639120 -75.043630 9.954069 0.000000 0.000000 0.000000 3.904779 2.349426 2.359343 3.185293 -5.330620 9.237760 8.293736 3.744431 -7.131210 -17.001480 23.152304 54.485666 4.084262 76.741984 -3.727646 0.000000 0.000000 0.000000 
-8.102591 71.757362 7.731041 0.000000 0.000000 0.000000 4.696401 5.087975 -21.902294 -77.122903 16.984015 15.116563 71.668068 0.736321 4.863751 27.789128 0.424781 20.101225 0.699506 -4.373470 -4.289575 0.000000 0.000000 0.000000 3.090420 1.949567 -21.088493 -7.225164 -7.987297 -11.512603 41.735301 12.320830 6.987010 11.964826 17.764286 0.264465 -48.084293 2.922158 -1.782259 0.000000 0.000000 0.000000 3.660348 8.303978 -21.303205 3.993668 7.757235 3.327933 2.573895 2.552047 1.586644 1.010401 4.463370 0.220644 0.000000 0.000000 0.000000 1.463085 1.594984 2.674782 -6.774822 2.904772 -2.909309 -17.903244 7.901478 4.966258 0.000000 0.000000 0.000000 2.212793 2.214350 1.867363 -0.947810 -3.583707 -3.305630 -1.557820 3.558339 -2.759493 62.994240 -14.028104 -41.309100 8.997453 -78.135698 8.494572 0.000000 0.000000 0.000000 2.894380 2.714963 2.059193 2.369377 -3.792533 8.033608 7.800200 4.163107 -7.395491 -24.859983 28.398296 58.895492 8.933531 88.152949 -9.515996 0.000000 0.000000 0.000000 
-7.471226 73.582146 25.936474 0.000000 0.000000 0.000000 2.940831 2.358728 -21.384962 -79.611578 12.991820 12.248572 48.760980 3.142285 3.050980 29.746772 1.511588 16.495793 3.520966 -4.222069 -4.429689 0.000000 0.000000 0.000000 4.927206 1.318265 -21.256778 3.449651 -7.671487 -11.391138 35.481945 12.087166 5.624693 15.168515 17.254364 6.663904 -45.939350 2.617357 -1.020330 0.000000 0.000000 0.000000 3.825157 6.001251 -21.097271 2.910157 10.403000 3.308854 2.614976 3.581000 1.232665 1.092084 4.364643 -0.172715 0.000000 0.000000 0.000000 1.591955 2.639162 2.241562 -5.908063 1.925184 -1.973031 -18.101555 9.139568 5.040635 0.000000 0.000000 0.000000 1.964180 3.402441 1.777524 -0.999731 -0.805633 -2.562878 -1.129791 3.070740 -1.715238 65.743959 -12.392447 -42.154169 8.843243 -82.415603 7.533844 0.000000 0.000000 0.000000 2.195918 3.683130 1.567721 1.583721 -1.926080 6.858184 7.896707 2.505325 -6.609732 -30.572811 33.779534 62.948266 179.529323 80.297528 178.992566 0.000000 0.000000 0.000000 
-5.871655 74.154961 44.424088 0.000000 0.000000 0.000000 2.365085 1.551263 -20.492965 -77.437133 8.091230 5.756736 31.709980 5.741458 3.066935 29.537689 3.752858 13.671104 6.222488 -4.077126 -4.603552 0.000000 0.000000 0.000000 7.859073 4.350831 -21.161239 13.323999 -6.322159 -10.346537 31.914462 10.426608 2.953585 14.373293 13.265055 8.831936 -38.907496 2.155724 0.120647 0.000000 0.000000 0.000000 3.009880 6.236641 -20.317637 2.554354 13.196136 2.870486 2.732761 4.662416 0.964602 1.358645 2.461301 0.215634 0.000000 0.000000 0.000000 1.554632 3.674077 1.776273 -4.893276 1.241432 -0.608010 -17.419677 10.908738 4.540644 0.000000 0.000000 0.000000 1.817682 4.572418 1.565062 -1.101821 1.645579 -2.270743 0.061478 1.831519 -0.742163 65.668751 -11.982172 -44.707184 8.234522 -85.984924 6.616772 0.000000 0.000000 0.000000 1.951873 4.656318 1.011045 0.858359 -0.369619 6.232220 8.656113 0.415140 -4.742850 -29.599984 36.970154 64.276199 179.023903 72.049179 178.903118 0.000000 0.000000 0.000000 
-3.433593 73.342247 62.882881 0.000000 0.000000 0.000000 2.209405 3.368612 -19.110362 -71.278830 3.905693 -2.051564 24.156767 8.123322 3.877230 24.324875 6.604927 13.365383 7.109261 -3.615110 -4.467332 0.000000 0.000000 0.000000 10.165389 9.255590 -20.887926 17.443403 -4.793171 -9.053093 36.026348 7.068906 -0.241804 10.628935 5.451425 5.379174 -28.313851 1.925103 1.131506 0.000000 0.000000 0.000000 2.035782 9.689335 -18.924931 2.954405 14.886657 2.049579 2.961354 5.296242 0.782254 0.688328 0.850411 0.675353 0.000000 0.000000 0.000000 1.318001 4.109604 1.402594 -3.854013 1.074710 0.589387 -15.965017 12.919576 3.711264 0.000000 0.000000 0.000000 1.785218 5.072462 1.234317 -1.159249 2.989414 -2.601770 1.840460 0.878419 -0.273284 61.227544 -12.927307 -47.825934 7.334873 -86.627918 6.040669 0.000000 0.000000 0.000000 2.078324 5.028273 0.549941 0.289312 0.489416 6.383008 9.435482 -0.155582 -2.457689 -20.228674 36.465014 62.257010 177.865038 68.778639 179.957248 0.000000 0.000000 0.000000 
-0.106257 71.640221 81.191055 0.000000 0.000000 0.000000 1.560023 6.804816 -17.492461 -60.856200 1.465516 -8.809043 26.166147 9.749509 4.317010 13.741319 8.546749 15.953563 3.490992 -2.738155 -4.164815 0.000000 0.000000 0.000000 10.088549 15.740113 -20.773966 12.570254 -3.179655 -8.021566 49.928461 2.396309 -2.920598 6.034315 -3.392139 -1.664618 -16.933620 1.952535 1.576334 0.000000 0.000000 0.000000 0.420715 14.845812 -16.679153 3.794109 14.535583 0.905407 3.250385 4.996941 0.643699 0.073864 -0.041796 0.064025 0.000000 0.000000 0.000000 0.893135 3.612212 1.131681 -2.771555 1.556116 1.177448 -13.784621 15.525131 3.011059 0.000000 0.000000 0.000000 1.921676 4.521861 0.846383 -1.101244 3.065861 -3.382953 2.977798 -0.303271 -1.191477 51.445572 -14.694976 -50.733617 5.249040 -83.580028 5.044235 0.000000 0.000000 0.000000 2.419618 4.440185 0.291933 -0.029141 0.141259 7.070799 8.880137 0.320712 -0.237037 -4.662653 31.413997 59.168870 176.182831 70.135565 -177.915308 0.000000 0.000000 0.000000 
3.562069 70.131058 99.745316 0.000000 0.000000 0.000000 0.105106 11.059376 -15.882741 -47.907466 0.606069 -13.869792 33.915171 11.536382 4.251491 -0.401595 8.504887 21.240415 -2.523375 -1.754937 -4.098108 0.000000 0.000000 0.000000 8.390717 22.997498 -20.063413 -0.305973 -1.439926 -7.356930 67.845717 -2.262798 -3.482701 2.546440 -10.091352 -8.044734 -8.313237 1.861836 1.102254 0.000000 0.000000 0.000000 -1.664447 20.222606 -14.703642 4.604316 11.866687 -0.077997 3.546068 3.682296 0.564394 0.110344 -0.155324 -0.748598 0.000000 0.000000 0.000000 0.397024 2.131448 0.978061 -1.533856 2.615052 1.162708 -11.263148 19.076764 2.731014 0.000000 0.000000 0.000000 2.204388 2.926740 0.540178 -0.952355 2.158020 -4.308510 3.244142 -0.935083 -3.627022 37.038094 -17.058457 -52.615765 3.094715 -78.667783 4.428668 0.000000 0.000000 0.000000 2.704931 2.848202 0.192663 -0.320661 -1.190775 7.684075 6.522458 1.049600 1.456714 12.079210 22.584803 57.869153 173.508675 74.156894 -174.652254 0.000000 0.000000 0.000000 
7.537799 70.122261 118.130737 0.000000 0.000000 0.000000 -1.305110 15.280219 -14.666182 -33.346589 -0.347253 -16.449915 42.880095 11.774245 3.832890 -11.326413 5.861394 24.738073 -9.404722 -0.770327 -3.778575 0.000000 0.000000 0.000000 5.919937 29.146395 -18.721045 -18.986731 1.367667 -6.159985 80.286333 -5.331573 -3.324815 2.178412 -13.135927 -11.490601 -3.791445 1.515652 0.167711 0.000000 0.000000 0.000000 -2.277720 24.341257 -13.569230 4.803771 7.107887 -0.415966 3.827831 1.637584 0.484305 0.078743 0.176132 -0.975077 0.000000 0.000000 0.000000 -0.014840 -0.056688 0.855314 -0.024105 3.839609 0.706001 -8.808108 22.826446 2.888417 0.000000 0.000000 0.000000 2.505200 0.640795 0.404293 -0.808411 0.877715 -4.969586 2.271785 -0.600543 -6.599910 20.547253 -19.290896 -52.764004 1.037568 -75.494108 3.803389 0.000000 0.000000 0.000000 2.866505 0.618084 0.221944 -0.576630 -3.279629 7.385892 3.467281 2.111964 2.264191 26.818338 12.940563 58.063896 170.850502 77.069088 -171.401835 0.000000 0.000000 0.000000 
11.767521 71.479500 136.397217 0.000000 0.000000 0.000000 -1.790717 19.830341 -14.019791 -18.185556 -1.477744 -16.126806 47.547535 9.939293 3.489786 -15.844079 2.823460 24.449328 -16.362413 -0.194604 -2.786068 0.000000 0.000000 0.000000 3.190143 32.758936 -16.717767 -39.283273 5.368083 -4.153246 81.854818 -6.975615 -3.834503 6.795683 -12.563653 -11.288834 -0.767053 1.106669 -0.589494 0.000000 0.000000 0.000000 -1.708817 26.091973 -13.227425 4.109756 1.163445 -0.267244 4.067602 -0.713762 0.460712 0.869450 0.389490 -1.015570 0.000000 0.000000 0.000000 -0.216252 -2.372902 0.749220 1.615006 4.870879 0.134921 -6.967766 26.386546 3.453092 0.000000 0.000000 0.000000 2.668166 -1.797427 0.567793 -0.717238 -0.260009 -4.959199 0.715907 1.051393 -8.769516 5.481335 -20.725120 -50.794454 -1.659491 -78.007877 1.983606 0.000000 0.000000 0.000000 2.866581 -1.747555 0.340876 -0.748693 -5.709267 5.965339 1.139557 3.573061 2.018872 38.491681 4.529098 58.454494 171.811920 76.210021 -171.888718 0.000000 0.000000 0.000000 
